<svg xmlns="http://www.w3.org/2000/svg" id="Outline" height="512" viewBox="0 0 128 128" width="512"><path d="m64 80.3c-1.8-.1-3.5-.8-4.8-2-.5-.5-.5-1.4 0-2 .5-.5 1.3-.5 1.8-.1 2 1.8 3.9 1.8 5.9 0 .6-.5 1.5-.3 2 .3.4.6.4 1.3-.1 1.8-1.3 1.2-3 2-4.8 2z"></path><path d="m74.8 86.6c-.3-.5-.9-.7-1.4-.4l-.2.1c-.2.1-.5.2-.7.2-.4.1-.7.1-1.1.1-.8 0-1.5 0-2.3-.2-.2 0-1.1-.3-1.2-.3-.8-.2-1.7 0-2.4.5-.5.4-1 .5-1.5.6-.5 0-1-.2-1.4-.5-.7-.5-1.6-.7-2.4-.5-.1 0-1 .2-1.2.3-.8.1-1.5.2-2.3.2-.4 0-.7 0-1.1-.1-.3 0-.5-.1-.7-.2l-.2-.1c-.5-.3-1.2-.1-1.4.4-.2.4-.2 1 .2 1.3.4.4 1 .7 1.6.9.5.2 1 .3 1.5.3.9.2 1.9.2 2.8.1.4-.1.9-.1 1.3-.1.3.1.5.3.8.5s.6.3.9.4c1.1.3 2.3.3 3.4 0 .3-.1.6-.2.9-.4s.5-.4.8-.5c.5 0 .9 0 1.3.1.9.1 1.9 0 2.8-.1.5-.1 1-.2 1.5-.3.6-.2 1.1-.5 1.6-.9.2-.5.3-1 .1-1.4z"></path><path d="m64 95.6c-.8 0-1.7-.2-2.4-.6s-1-1.3-.6-2 1.2-1 1.9-.7c.7.4 1.5.4 2.2 0 .8-.3 1.6 0 2 .8.3.7 0 1.5-.7 1.9s-1.5.6-2.4.6z"></path><path d="m39 106.9c-.2 0-.5-.1-.7-.2-5-2.7-8.4-8.8-8.6-9.1-.4-.7-.1-1.6.6-2s1.6-.1 2 .6c0 .1 3.1 5.6 7.4 7.9.7.4 1 1.3.6 2-.3.5-.8.8-1.3.8z"></path><path d="m27.4 97.3c-.2 0-.3 0-.5-.1-.8-.3-1.2-1.1-.9-1.9l.9-2.6c.5-1.4 2-2.1 3.4-1.6l2.6.9c.8.3 1.2 1.1.9 1.9s-1.1 1.2-1.9.9l-2.3-.8-.8 2.3c-.2.6-.8 1-1.4 1z"></path><path d="m89 106.9c-.8 0-1.5-.7-1.5-1.5 0-.6.3-1.1.8-1.3 4.2-2.3 7.4-7.8 7.4-7.9.4-.7 1.3-1 2.1-.5.7.4.9 1.3.6 2-.1.3-3.6 6.3-8.6 9.1-.3.1-.5.1-.8.1z"></path><path d="m100.6 97.3c-.6 0-1.2-.4-1.4-1l-.8-2.3-2.3.8c-.8.3-1.6-.1-1.9-.9s.1-1.6.9-1.9l2.6-.9c1.4-.5 2.9.2 3.4 1.6l.9 2.6c.3.8-.1 1.6-.9 1.9-.1.1-.3.1-.5.1z"></path><path d="m56 55.8c-1.7-.1-3.4-.2-5.2-.4-1.7-.1-3.5-.3-5.2-.5 0 0-2-.2-2.6-.3-.8-.1-1.6-.1-2.4-.1-1.6.2-3.2.7-4.7 1.5-.3.2-.7 0-.9-.3-.1-.3-.1-.6.2-.8 1.5-1.1 3.2-2 5.1-2.4.5-.1 2.2-.3 2.2-.3h.7 2.7c1.8 0 3.6.1 5.3.3 1.8.2 3.6.5 5.3 1 .6.2 1 .8.8 1.4s-.7.9-1.3.9z"></path><path d="m75.8 64.9h2c1.3 0 2.6-.1 3.8-.4 1.2-.2 2.4-.6 3.5-1.1 0 0 .5-.3.6-.3.3-.1.5-.2.8-.2.5 0 1 .1 1.5.3.6.3 1.1.5 1.7.7.3.1.5.5.4.8-.1.2-.2.4-.4.4-.8.2-1.6.2-2.3 0-.2-.1-.4 0-.6 0-.1 0-.4.3-.4.3-1.3.9-2.7 1.5-4.3 1.7-1.5.3-2.9.4-4.4.2-1.5-.1-3-.3-4.4-.8-.5-.2-.8-.8-.6-1.3.2-.4.6-.7 1-.6.1.2 1.5.3 2.1.3z"></path><path d="m52.2 64.9c-.7 0-1.3 0-2 0-1.3 0-2.6-.1-3.8-.4-1.2-.2-2.4-.6-3.5-1.1 0 0-.5-.3-.6-.3-.3-.1-.6-.1-.8-.2-.5 0-1 .1-1.5.3-.6.3-1.1.5-1.7.7-.3.1-.5.5-.4.8.1.2.2.4.4.4.8.2 1.6.2 2.3 0 .2-.1.4 0 .6 0 .1 0 .4.3.4.3 1.3.9 2.7 1.5 4.3 1.7 1.5.3 2.9.4 4.4.2 1.5-.1 3-.3 4.4-.8.5-.2.8-.8.6-1.3-.2-.4-.6-.7-1-.6-.1.2-1.5.3-2.1.3z"></path><path d="m71.6 53.5c1.7-.5 3.5-.8 5.3-1s3.6-.3 5.3-.3h2.7l1.4.1c.5.1 1 .1 1.5.2 1.8.5 3.6 1.3 5.1 2.4.3.2.4.6.1.9-.2.3-.6.4-.9.2-1.5-.8-3.1-1.3-4.7-1.5-.4 0-.8-.1-1.2-.1l-1.2.2-2.6.3c-1.7.2-3.5.4-5.2.5-1.7.2-3.5.2-5.2.4-.6 0-1.2-.4-1.2-1.1-.1-.5.2-1 .8-1.2z"></path><path d="m82.3 94.2c.4-.4 1-.4 1.4.1s.4 1-.1 1.4c-.5.5-1 .9-1.5 1.4-.4.3-1.1.3-1.4-.2-.3-.4-.3-1 .1-1.4.6-.5 1.1-.9 1.5-1.3z"></path><path d="m69.3 102.4c.6-.2 1.2-.4 1.8-.7.5-.2 1.1 0 1.3.5s0 1.1-.5 1.3c-.6.3-1.3.5-1.9.7-.5.2-1.1-.1-1.3-.6-.2-.4 0-1 .6-1.2z"></path><path d="m75.4 99.5c.6-.3 1.1-.7 1.6-1.1.5-.3 1.1-.2 1.4.3s.2 1.1-.3 1.4c-.6.4-1.1.8-1.7 1.1-.5.3-1.1.1-1.4-.3s-.1-1.1.4-1.4z"></path><path d="m95 77.9c.3-.5.9-.7 1.4-.4s.7.9.4 1.4-.4.7-1 1.8c-.3.5-.9.7-1.4.4s-.7-.9-.4-1.4c0 0 0 0 0-.1.7-1.1 1-1.7 1-1.7z"></path><path d="m91.3 83.7c.3-.5.9-.6 1.4-.2.5.3.6.9.2 1.4-.4.5-.8 1.1-1.2 1.6-.3.4-.9.5-1.4.2s-.5-.9-.2-1.4c.5-.5.9-1.1 1.2-1.6z"></path><path d="m87.1 89.2c.3-.4 1-.5 1.4-.2s.5 1 .2 1.4c0 0 0 0-.1.1-.4.5-.9 1-1.3 1.5-.3.4-1 .5-1.4.2s-.5-1-.2-1.4c0 0 .1-.1.1-.1.4-.5.9-1 1.3-1.5z"></path><path d="m51 98.5c.5.4 1.1.7 1.6 1.1.5.3.6.9.3 1.4s-.9.6-1.4.3c-.6-.4-1.2-.7-1.7-1.1-.5-.3-.6-.9-.3-1.4s1-.7 1.5-.3z"></path><path d="m40.9 89.2c.4.5.9 1 1.3 1.5.4.4.4 1 0 1.4s-1 .4-1.4 0c-.5-.5-.9-1-1.3-1.5-.4-.4-.4-1 0-1.4.3-.5 1-.5 1.4 0 0-.1 0 0 0 0z"></path><path d="m36.7 83.7c.4.5.7 1 1.2 1.6.3.4.3 1.1-.2 1.4-.4.3-1.1.3-1.4-.2-.4-.6-.8-1.1-1.2-1.6-.3-.5-.2-1.1.2-1.4s1-.2 1.4.2z"></path><path d="m31.6 77.5c.5-.3 1.1-.1 1.4.4 0 0 .3.6 1 1.7.3.5.1 1.1-.3 1.4-.5.3-1.1.1-1.4-.3-.7-1.1-1-1.8-1-1.8-.4-.5-.2-1.1.3-1.4z"></path><path d="m45.7 94.2c.5.4 1 .9 1.5 1.3.4.4.4 1 .1 1.4-.4.4-.9.4-1.4.1-.5-.4-1-.9-1.5-1.4-.4-.4-.5-1-.1-1.4.3-.4.9-.4 1.4 0-.1-.1 0 0 0 0z"></path><path d="m62.9 103.6h2.2c.5-.1 1.1.3 1.1.8.1.5-.3 1.1-.8 1.1-.3 0-2.5 0-2.7 0-.5-.1-.9-.6-.9-1.1s.5-.9 1.1-.8z"></path><path d="m56.9 101.7c.6.3 1.2.5 1.8.7.5.2.8.7.6 1.3-.2.5-.7.8-1.3.6-.6-.2-1.3-.5-1.9-.7-.5-.2-.7-.8-.5-1.3.3-.5.8-.8 1.3-.6z"></path><path d="m106.3 61.3c-.1-.1-.1-.1-.2-.2 1.6-9.2 1.5-25.6-2.8-34.6-7.2-14.8-23.7-25.5-39.3-25.5-15.6 0-32.1 10.7-39.2 25.5-4.4 9-4.4 25.5-2.8 34.6-.1.1-.1.1-.2.2-2.1 2.3-3 5.6-2.4 9.4 1 5.8 6.8 12 12.7 12 2 6.8 5 12.2 8.9 16 2.9 2.9 6.2 5.5 9.8 7.6-.5 4.4-2.6 14.4-11 17.8-.8.3-1.1 1.2-.8 2 .2.6.8.9 1.4.9.2 0 .4 0 .6-.1 9.2-3.7 11.9-13.8 12.7-19.1 2.4 1.1 5 2 7.6 2.7 1.9.4 3.8.4 5.7 0 2.6-.6 5.2-1.5 7.6-2.7.8 5.3 3.5 15.4 12.7 19.1.8.3 1.6-.1 2-.8.3-.8-.1-1.6-.8-2-8.4-3.4-10.5-13.4-11-17.8 3.6-2.1 6.9-4.7 9.8-7.6 3.9-3.8 6.9-9.2 8.9-16 5.9 0 11.7-6.2 12.7-12 .3-3.8-.5-7.1-2.6-9.4zm-84 8.9c-.6-2.4 0-4.9 1.6-6.8 1.4-1.4 3.3-2.2 5.2-2.1 0 1.8.1 3.5.2 5.2-1.1-.4-2.2-.6-3.4-.5-.8.1-1.4.8-1.3 1.6s.8 1.4 1.6 1.3c1.3-.1 2.6.4 3.4 1.3.3 3.2.8 6.3 1.6 9.4-4-.7-8.2-5.4-8.9-9.4zm62.7 26.3c-4.6 4.5-10.1 8.9-18.8 11-1.4.3-2.9.3-4.3 0-8.7-2.1-14.2-6.5-18.8-11-7.5-7.3-11.3-21.4-10.8-39.8.3-4.5.9-9.1 1.8-13.5 8.7-1.3 14-8.6 17.9-14.2 2.9-4.3 7.9-6.9 13.1-6.7 4.4.1 8.4 2.4 10.7 6.1.6 1 1.6 1.6 2.7 1.7h1c.6 0 1.3.1 1.9.2 2.8 1 4.4 3.4 6.1 6 .7 1.2 1.5 2.3 2.4 3.4 1 1.2 2.3 2.3 3.8 3 1.3 4.5 2 9.2 2.2 14 .4 18.4-3.4 32.5-10.9 39.8zm7.1-58.6c-.8-1-1.5-2-2.2-3.1-1.8-2.7-3.8-5.8-7.5-7.1-.9-.3-1.9-.4-2.8-.4-.3 0-.6 0-.9 0-.2 0-.3-.1-.4-.3-2.8-4.5-7.8-7.3-13.1-7.5-6.2-.1-12 2.9-15.5 7.9-4.3 6-9.7 13.5-18.9 13.1-.8 0-1.5.6-1.5 1.4s.6 1.5 1.4 1.5h.1.3c-.9 4.4-1.4 8.8-1.7 13.2v1.6c-1.5 0-3.1.4-4.5 1-1.3-8.8-1-23.5 2.8-31.4 6.4-13.8 21.8-23.8 36.3-23.8 14.5 0 29.9 10 36.5 23.7 3.8 7.9 4.1 22.6 2.8 31.4-1.4-.6-2.9-1-4.5-1 0-.5 0-1 0-1.6-.1-4.3-.7-8.5-1.7-12.7.3.1.6.1 1 .2h.2c.8 0 1.5-.6 1.5-1.4s-.5-1.4-1.3-1.5c-2.5-.1-4.8-1.3-6.4-3.2zm13.5 32.3c-.7 4.1-4.9 8.8-8.9 9.4.7-3.1 1.3-6.3 1.6-9.4.9-1 2.1-1.5 3.4-1.3.8.1 1.5-.5 1.6-1.3s-.5-1.6-1.3-1.6c-1.2-.1-2.3.1-3.4.5.1-1.7.2-3.4.2-5.2 2 0 3.8.8 5.2 2.1 1.6 1.8 2.2 4.4 1.6 6.8z"></path></svg>