<svg xmlns="http://www.w3.org/2000/svg" id="&#x421;&#x43B;&#x43E;&#x439;_1" height="512" viewBox="0 0 128 128" width="512"><path d="m85.66 46.25c-1.5-2.28-5.88-9.12-5.93-9.2a8.71 8.71 0 0 0 -3.07-2.87l-6.78-3.75a6.59 6.59 0 0 0 -7.82 1.1l-22.44 22.47-29.62-29.64 14.36-14.36 25.45 25.47a2 2 0 0 0 2.83-2.84l-26.86-26.86a2 2 0 0 0 -2.84 0l-10.94 10.93-8.58-8.59a2 2 0 0 0 -2.83 2.89l8.58 8.58-3.4 3.41a2 2 0 0 0 0 2.84l31 31-5.26 5.26a6.59 6.59 0 0 0 -1.1 7.82l3.75 6.78a8.67 8.67 0 0 0 2.84 3c.28.19 6.84 4.57 9.32 6a9.48 9.48 0 0 0 4.78 1.16c6.34 0 15.06-4.65 23.09-12.68 10.63-10.56 15.34-22.06 11.47-27.92zm-37.1 36.1c5.55-3 13.45-9.85 18.66-15.07 3.59-3.59 6.68-6.91 9.19-9.87a2 2 0 0 0 -3.06-2.59c-2.44 2.87-5.45 6.11-9 9.62-10.47 10.47-18.21 15-20 15.35-.65-.42-5.7-3.18-6.75-5.08l-3.75-6.78a2.54 2.54 0 0 1 .42-3l30.63-30.57a2.55 2.55 0 0 1 3-.42l6.78 3.75c1.1.61 6.3 8.79 7.61 10.77 2.37 3.54-1.09 13.09-10.91 22.92-9.45 9.44-18.92 12.94-22.82 10.97z"></path><path d="m12.17 8a2 2 0 0 0 3-2.67l-4.17-4.66a2 2 0 1 0 -3 2.67z"></path><path d="m126 57.3a2 2 0 0 0 -2 2 64.76 64.76 0 0 1 -64.69 64.7 2 2 0 1 0 0 4 68.77 68.77 0 0 0 68.69-68.69 2 2 0 0 0 -2-2.01z"></path><path d="m59.31 110.14a2 2 0 1 0 0 4 54.9 54.9 0 0 0 54.84-54.84 2 2 0 1 0 -4 0 50.88 50.88 0 0 1 -50.84 50.84z"></path><path d="m59.31 95.66a2 2 0 1 0 0 4 40.41 40.41 0 0 0 40.36-40.35 2 2 0 1 0 -4 0 36.4 36.4 0 0 1 -36.36 36.35z"></path></svg>