<svg xmlns="http://www.w3.org/2000/svg" id="Outline" height="512" viewBox="0 0 128 128" width="512"><path d="m49.5 47.075a1.5 1.5 0 0 1 -1.5-1.5v-1.792a1.5 1.5 0 0 1 3 0v1.792a1.5 1.5 0 0 1 -1.5 1.5z"></path><path d="m101.211 78.385c-1.943-11.535-10.111-22.369-16.068-30.28-3.1-4.115-5.78-7.669-6.51-9.9-2.148-6.572-.278-13.935 2.091-23.256.9-3.531 1.913-7.532 2.786-11.83a1.5 1.5 0 0 0 -2.94-.6c-.859 4.226-1.823 8.02-2.755 11.688-2.487 9.793-4.452 17.526-2.034 24.926.886 2.71 3.57 6.27 6.966 10.778 1.736 2.3 3.665 4.868 5.564 7.616-6.062 1.206-11.906 3.71-17.577 6.151-7.685 3.307-14.945 6.43-22.478 6.435h-.013c-7.014 0-14.621-3-19.453-5.8a160.2 160.2 0 0 0 5.51-22.079c1.079-6.816-.377-15.088-1.919-23.845a154.827 154.827 0 0 1 -2.225-15.675 1.5 1.5 0 1 0 -2.992.205 156.812 156.812 0 0 0 2.259 15.989c1.5 8.5 2.911 16.536 1.911 22.858a162.23 162.23 0 0 1 -5.619 22.339c-1.095 3.582-2.129 6.964-2.867 10.025-3.97 16.444-8.164 48.419-8.629 52.011a1.5 1.5 0 0 0 1.3 1.679 1.415 1.415 0 0 0 .194.013 1.5 1.5 0 0 0 1.485-1.308c.463-3.575 4.638-35.4 8.571-51.692.028-.117.064-.243.093-.361 10.235 11.8 23.121 24.576 31.354 25.183 0 .059-.009.121-.01.18-.013 2.222-.082 4.777-.156 7.483-.007.247-.013.5-.02.751a93 93 0 0 1 -6.532 15.058c-.518.981-.967 1.828-1.313 2.573a1.5 1.5 0 0 0 2.72 1.266c.315-.676.746-1.491 1.246-2.437.991-1.875 2.284-4.326 3.714-7.628a94.58 94.58 0 0 0 .349 9.585 1.5 1.5 0 0 0 1.49 1.347c.052 0 .1 0 .155-.008a1.5 1.5 0 0 0 1.339-1.645c-.522-5.076-.324-12.357-.149-18.78.074-2.722.144-5.294.157-7.547.048-8.332 24.292-30.311 34.465-31.644a40.141 40.141 0 0 1 3.586 10.674c1.536 9.113.608 14.7-1.872 29.619-.778 4.686-1.748 10.519-2.823 17.606a1.5 1.5 0 0 0 1.258 1.708 1.6 1.6 0 0 0 .227.017 1.5 1.5 0 0 0 1.481-1.275c1.072-7.067 2.039-12.887 2.817-17.564 2.463-14.853 3.485-21.002 1.866-30.609zm-28.745.078c-3.085 2.737-12.2 11.249-14.648 18.223-5.531.091-17.223-9.578-31.02-25.719q.516-1.807 1.1-3.722c5.2 2.895 13.036 5.868 20.348 5.868h.015c8.15 0 16.036-3.4 23.662-6.679 5.919-2.547 12.03-5.159 18.214-6.182 1.089 1.68 2.141 3.415 3.114 5.2-6.067 1.411-14.695 7.607-20.785 13.011z"></path><path d="m102.532 22.935-2.307-1.262a3.7 3.7 0 0 1 -1.476-1.473l-1.262-2.306a2.173 2.173 0 0 0 -3.814 0l-1.262 2.306a3.708 3.708 0 0 1 -1.475 1.476l-2.309 1.263a2.173 2.173 0 0 0 0 3.813l2.307 1.261a3.7 3.7 0 0 1 1.476 1.477l1.264 2.31a2.173 2.173 0 0 0 3.813 0l1.262-2.307a3.7 3.7 0 0 1 1.476-1.476l2.306-1.262a2.173 2.173 0 0 0 0-3.814zm-3.747 2.443a6.7 6.7 0 0 0 -2.669 2.67l-.536.98-.536-.98a6.7 6.7 0 0 0 -2.669-2.67l-.981-.536.982-.537a6.708 6.708 0 0 0 2.668-2.668l.536-.981.536.981a6.7 6.7 0 0 0 2.669 2.669l.982.536z"></path><path d="m21.49 56.7-1.875-1.025a2.72 2.72 0 0 1 -1.087-1.087l-1.028-1.875a2.047 2.047 0 0 0 -1.8-1.063 2.049 2.049 0 0 0 -1.794 1.065l-1.025 1.875a2.738 2.738 0 0 1 -1.081 1.086l-1.878 1.024a2.046 2.046 0 0 0 0 3.591l1.878 1.027a2.725 2.725 0 0 1 1.088 1.088l1.022 1.874a2.046 2.046 0 0 0 1.79 1.066 2.05 2.05 0 0 0 1.8-1.065l1.025-1.875a2.729 2.729 0 0 1 1.087-1.088l1.873-1.024a2.047 2.047 0 0 0 0-3.594zm-3.314 1.986a5.726 5.726 0 0 0 -2.28 2.281l-.189.346-.189-.346a5.716 5.716 0 0 0 -2.282-2.28l-.345-.191.345-.188a5.744 5.744 0 0 0 2.282-2.281l.189-.345.189.345a5.732 5.732 0 0 0 2.28 2.281l.345.189z"></path></svg>