<svg xmlns="http://www.w3.org/2000/svg" xmlns:svg="http://www.w3.org/2000/svg" id="svg4368" xml:space="preserve" width="682.66669" height="682.66669" viewBox="0 0 682.66669 682.66669"><defs id="defs4372"><clipPath clipPathUnits="userSpaceOnUse" id="clipPath4382"><path d="M 0,512 H 512 V 0 H 0 Z" id="path4380"></path></clipPath></defs><g id="g4374" transform="matrix(1.3333333,0,0,-1.3333333,0,682.66667)"><g id="g4376"><g id="g4378" clip-path="url(#clipPath4382)"><g id="g4384" transform="translate(101.3843,235.2861)"><path d="m 0,0 h -22.314 c -8.215,0 -14.952,-6.729 -14.952,-14.935 V -29.7 c 0,-18.854 21.205,-38.106 39.881,-37.85" style="fill:none;stroke:#000000;stroke-width:15.118;stroke-linecap:round;stroke-linejoin:round;stroke-miterlimit:10;stroke-dasharray:none;stroke-opacity:1" id="path4386"></path></g><g id="g4388" transform="translate(155.4209,211.6621)"><path d="M 0,0 C 16.999,16.98 44.515,16.98 61.484,0" style="fill:none;stroke:#000000;stroke-width:15.118;stroke-linecap:round;stroke-linejoin:round;stroke-miterlimit:10;stroke-dasharray:none;stroke-opacity:1" id="path4390"></path></g><g id="g4392" transform="translate(281.2891,211.6621)"><path d="M 0,0 C 16.97,16.98 44.514,16.98 61.484,0" style="fill:none;stroke:#000000;stroke-width:15.118;stroke-linecap:round;stroke-linejoin:round;stroke-miterlimit:10;stroke-dasharray:none;stroke-opacity:1" id="path4394"></path></g><g id="g4396" transform="translate(306.5024,148.1162)"><path d="m 0,0 c 0,5.594 -4.605,10.193 -10.205,10.193 h -94.401 c -5.6,0 -10.176,-4.599 -10.176,-10.193 0,-31.66 25.697,-57.328 57.391,-57.328 C -25.697,-57.328 0,-31.66 0,0 Z" style="fill:none;stroke:#000000;stroke-width:15.118;stroke-linecap:round;stroke-linejoin:round;stroke-miterlimit:10;stroke-dasharray:none;stroke-opacity:1" id="path4398"></path></g><g id="g4400" transform="translate(435.1846,355.168)"><path d="m 0,0 c 0.227,-0.427 0.739,-1.477 0.938,-1.903 24.73,-50.571 36.1,-107.245 36.1,-152.847 v -109.716 c 0,-43.244 -30.387,-52.898 -51.223,-48.213 l -100.683,22.63 m -168.079,391.416 c 0.369,0.199 3.325,2.073 3.667,2.272 26.549,14.964 57.505,23.823 93.207,23.823 57.078,0 102.019,-22.602 136.186,-56.647 0.824,-0.824 6.254,-6.275 7.078,-7.098 M -375.898,-7.752 c 9.892,21.324 22.115,41.711 36.896,59.969 m 17.14,-356.917 -36.128,-7.979 c -20.836,-4.629 -51.195,4.969 -51.195,48.213 v 109.716 c 0,34.102 6.339,74.422 19.898,113.72" style="fill:none;stroke:#000000;stroke-width:15.118;stroke-linecap:round;stroke-linejoin:round;stroke-miterlimit:10;stroke-dasharray:none;stroke-opacity:1" id="path4402"></path></g><g id="g4404" transform="translate(318.1851,289.8037)"><path d="m 0,0 c 24.844,-5.338 50.427,-6.076 65.72,-3.18 15.179,2.868 12.933,-6.815 12.933,-25.1 v -71.64 c 0,-53.239 -49.829,-120.051 -110.745,-142.738 -13.446,-4.997 -25.214,-7.525 -36.982,-7.525 -11.796,0 -23.564,2.528 -37.009,7.525 -7.931,2.953 -15.663,6.644 -23.139,10.988 m -57.05,51.536 c -18.903,25.583 -30.529,54.489 -30.529,80.214 v 71.64 c -0.085,6.473 -2.843,26.236 14.042,24.873 30.359,-5.225 97.528,3.123 123.907,31.574 5.827,6.105 13.388,6.219 19.443,0.114 6.538,-7.098 15.634,-12.976 26.095,-17.69" style="fill:none;stroke:#000000;stroke-width:15.118;stroke-linecap:round;stroke-linejoin:round;stroke-miterlimit:10;stroke-dasharray:none;stroke-opacity:1" id="path4406"></path></g><g id="g4408" transform="translate(396.8384,235.2861)"><path d="m 0,0 h 22.286 c 8.243,0 14.951,-6.729 14.951,-14.935 V -29.7 c 0,-18.854 -21.176,-38.106 -39.881,-37.85" style="fill:none;stroke:#000000;stroke-width:15.118;stroke-linecap:round;stroke-linejoin:round;stroke-miterlimit:10;stroke-dasharray:none;stroke-opacity:1" id="path4410"></path></g><g id="g4412" transform="translate(417.106,461.0215)"><path d="m 0,0 -23.281,-41.342 -34.991,-19.563 c -6.68,-3.748 -9.21,-4.203 -7.306,-5.68 -1.904,-1.477 0.626,-1.931 7.306,-5.679 L -23.281,-91.855 0,-133.197 c 0.369,-0.682 0.853,-1.023 1.364,-0.966 0.484,-0.057 0.967,0.284 1.336,0.966 l 23.28,41.342 34.992,19.591 c 6.68,3.748 9.21,4.202 7.306,5.679 1.904,1.477 -0.626,1.932 -7.306,5.68 L 25.98,-41.342 2.7,0 C 2.331,0.71 1.848,1.022 1.364,0.966 0.853,1.022 0.369,0.71 0,0 Z" style="fill:none;stroke:#000000;stroke-width:15.118;stroke-linecap:round;stroke-linejoin:round;stroke-miterlimit:10;stroke-dasharray:none;stroke-opacity:1" id="path4414"></path></g><g id="g4416" transform="translate(114.3745,503.5566)"><path d="m 0,0 -22.427,-39.866 -33.77,-18.882 c -10.46,-5.878 -10.46,-5.083 0,-10.96 L -22.427,-88.591 0,-128.484 c 0.37,-0.682 0.825,-0.995 1.308,-0.938 0.483,-0.057 0.938,0.256 1.307,0.938 l 22.456,39.893 33.77,18.883 c 10.46,5.877 10.46,5.082 0,10.96 L 25.071,-39.866 2.615,0 C 2.246,0.682 1.791,0.993 1.308,0.937 0.825,0.993 0.37,0.682 0,0 Z" style="fill:none;stroke:#000000;stroke-width:15.118;stroke-linecap:round;stroke-linejoin:round;stroke-miterlimit:10;stroke-dasharray:none;stroke-opacity:1" id="path4418"></path></g><g id="g4420" transform="translate(143.0845,128.0693)"><path d="M 0,0 -20.921,-37.14 -52.36,-54.744 c -9.75,-5.481 -9.75,-4.742 0,-10.194 L -20.921,-82.542 0,-119.71 c 0.341,-0.625 0.768,-0.909 1.222,-0.853 0.455,-0.056 0.882,0.228 1.222,0.853 l 20.893,37.168 31.467,17.604 c 9.75,5.452 9.75,4.713 0,10.194 L 23.337,-37.14 2.444,0 C 2.104,0.625 1.677,0.937 1.222,0.881 0.768,0.937 0.341,0.625 0,0 Z" style="fill:none;stroke:#000000;stroke-width:15.118;stroke-linecap:round;stroke-linejoin:round;stroke-miterlimit:10;stroke-dasharray:none;stroke-opacity:1" id="path4422"></path></g></g></g></g></svg>